<?xml version="1.0" encoding="utf-8" standalone="no"?>
<!DOCTYPE svg PUBLIC "-//W3C//DTD SVG 1.1//EN"
  "http://www.w3.org/Graphics/SVG/1.1/DTD/svg11.dtd">
<!-- Created with matplotlib (http://matplotlib.org/) -->
<svg height="216pt" version="1.1" viewBox="0 0 432 216" width="432pt" xmlns="http://www.w3.org/2000/svg" xmlns:xlink="http://www.w3.org/1999/xlink">
 <defs>
  <style type="text/css">
*{stroke-linecap:butt;stroke-linejoin:round;stroke-miterlimit:100000;}
  </style>
 </defs>
 <g id="figure_1">
  <g id="patch_1">
   <path d="M 0 216 
L 432 216 
L 432 0 
L 0 0 
z
" style="fill:#ffffff;"/>
  </g>
  <g id="axes_1">
   <g id="patch_2">
    <path d="M 51.84 172.8 
L 204.546977 172.8 
L 204.546977 21.6 
L 51.84 21.6 
z
" style="fill:#ffffff;"/>
   </g>
   <g id="line2d_1">
    <path clip-path="url(#pf514c253b2)" d="M 51.84 167.602726 
L 53.36707 166.917922 
L 54.894139 166.407258 
L 56.421209 166.344639 
L 57.948279 165.843675 
L 59.475348 166.268345 
L 61.002418 166.25381 
L 62.529487 165.931975 
L 64.056557 166.137146 
L 65.583627 165.575654 
L 67.110696 164.556552 
L 68.637766 164.357879 
L 70.164836 163.837549 
L 71.691905 163.0524 
L 73.218975 162.798971 
L 74.746044 163.205045 
L 76.273114 162.232095 
L 77.800184 162.504216 
L 79.327253 163.232399 
L 80.854323 162.954164 
L 82.381393 162.834477 
L 83.908462 162.83613 
L 85.435532 162.256926 
L 86.962602 162.183785 
L 88.489671 162.016475 
L 90.016741 161.922195 
L 91.54381 161.86891 
L 93.07088 161.454045 
L 94.59795 161.142328 
L 96.125019 161.28561 
L 97.652089 161.21369 
L 99.179159 160.71946 
L 100.706228 160.487372 
L 102.233298 160.376957 
L 103.760368 160.562897 
L 105.287437 160.325239 
L 106.814507 160.268325 
L 108.341576 159.61845 
L 109.868646 159.65073 
L 111.395716 159.311294 
L 112.922785 158.542871 
L 114.449855 158.061412 
L 115.976925 157.423952 
L 117.503994 157.535756 
L 119.031064 157.304015 
L 120.558133 156.438024 
L 122.085203 155.664425 
L 123.612273 154.929374 
L 125.139342 154.375965 
L 126.666412 153.078854 
L 128.193482 152.912645 
L 129.720551 151.44806 
L 131.247621 150.260576 
L 132.774691 149.204873 
L 134.30176 148.584144 
L 135.82883 147.788973 
L 137.355899 147.273508 
L 138.882969 146.492679 
L 140.410039 145.158409 
L 141.937108 144.800121 
L 143.464178 143.759712 
L 144.991248 143.95403 
L 146.518317 142.97264 
L 148.045387 142.321068 
L 149.572457 141.662421 
L 151.099526 141.039977 
L 152.626596 140.12446 
L 154.153665 139.60972 
L 155.680735 138.740721 
L 157.207805 139.03663 
L 158.734874 137.903349 
L 160.261944 137.419034 
L 161.789014 137.089182 
L 163.316083 136.589131 
L 164.843153 136.99161 
L 166.370222 136.568319 
L 167.897292 135.801785 
L 169.424362 135.311712 
L 170.951431 135.228194 
L 172.478501 134.443386 
L 174.005571 134.222546 
L 175.53264 133.165419 
L 177.05971 133.145357 
L 178.58678 133.963782 
L 180.113849 134.138028 
L 181.640919 134.296922 
L 183.167988 134.148025 
L 184.695058 133.472113 
L 186.222128 133.638948 
L 187.749197 133.703768 
L 189.276267 133.755439 
L 190.803337 133.693252 
L 192.330406 133.904806 
L 193.857476 133.728724 
L 195.384545 133.138349 
L 196.911615 132.493343 
L 198.438685 132.902493 
L 199.965754 132.656726 
" style="fill:none;stroke:#0000ff;stroke-linecap:square;stroke-width:2.0;"/>
   </g>
   <g id="line2d_2">
    <path clip-path="url(#pf514c253b2)" d="M 51.84 88.368897 
L 53.36707 88.134358 
L 54.894139 88.012599 
L 56.421209 87.116376 
L 57.948279 86.773633 
L 59.475348 85.031443 
L 61.002418 83.127908 
L 62.529487 81.365819 
L 64.056557 80.419963 
L 65.583627 78.633111 
L 67.110696 78.485205 
L 68.637766 78.418904 
L 70.164836 76.648499 
L 71.691905 75.738366 
L 73.218975 74.86208 
L 74.746044 73.795052 
L 76.273114 72.648005 
L 77.800184 72.588193 
L 79.327253 70.471844 
L 80.854323 69.716769 
L 82.381393 69.440087 
L 83.908462 69.712722 
L 85.435532 68.859796 
L 86.962602 69.214123 
L 88.489671 68.001188 
L 90.016741 66.680645 
L 91.54381 65.982796 
L 93.07088 62.965937 
L 94.59795 62.504857 
L 96.125019 60.187654 
L 97.652089 60.030211 
L 99.179159 60.301895 
L 100.706228 58.84502 
L 102.233298 58.507314 
L 103.760368 57.926379 
L 105.287437 57.493754 
L 106.814507 56.255826 
L 108.341576 56.518569 
L 109.868646 55.661048 
L 111.395716 55.804609 
L 112.922785 55.404918 
L 114.449855 53.789082 
L 115.976925 54.381129 
L 117.503994 53.929182 
L 119.031064 53.828399 
L 120.558133 53.635984 
L 122.085203 52.870883 
L 123.612273 51.01001 
L 125.139342 51.088318 
L 126.666412 50.446071 
L 128.193482 49.607891 
L 129.720551 48.890739 
L 131.247621 47.191539 
L 132.774691 48.526924 
L 134.30176 50.229989 
L 135.82883 49.6365 
L 137.355899 47.813483 
L 138.882969 48.228613 
L 140.410039 47.708509 
L 141.937108 49.164538 
L 143.464178 48.042716 
L 144.991248 47.381012 
L 146.518317 47.241969 
L 148.045387 46.716886 
L 149.572457 44.647295 
L 151.099526 43.9804 
L 152.626596 43.764684 
L 154.153665 43.330905 
L 155.680735 43.046494 
L 157.207805 42.575743 
L 158.734874 41.417891 
L 160.261944 41.091394 
L 161.789014 39.765083 
L 163.316083 39.491516 
L 164.843153 39.63227 
L 166.370222 39.836143 
L 167.897292 39.32969 
L 169.424362 39.004077 
L 170.951431 39.399077 
L 172.478501 39.616043 
L 174.005571 39.699292 
L 175.53264 41.503217 
L 177.05971 40.213282 
L 178.58678 40.147894 
L 180.113849 40.015464 
L 181.640919 41.057806 
L 183.167988 40.86841 
L 184.695058 40.295608 
L 186.222128 40.335348 
L 187.749197 39.886823 
L 189.276267 39.722863 
L 190.803337 39.7433 
L 192.330406 40.155315 
L 193.857476 39.71473 
L 195.384545 40.668786 
L 196.911615 40.675361 
L 198.438685 41.291864 
L 199.965754 40.696683 
" style="fill:none;stroke:#ff0000;stroke-linecap:square;stroke-width:2.0;"/>
   </g>
   <g id="patch_3">
    <path d="M 51.84 21.6 
L 204.546977 21.6 
" style="fill:none;stroke:#000000;stroke-linecap:square;stroke-linejoin:miter;"/>
   </g>
   <g id="patch_4">
    <path d="M 204.546977 172.8 
L 204.546977 21.6 
" style="fill:none;stroke:#000000;stroke-linecap:square;stroke-linejoin:miter;"/>
   </g>
   <g id="patch_5">
    <path d="M 51.84 172.8 
L 204.546977 172.8 
" style="fill:none;stroke:#000000;stroke-linecap:square;stroke-linejoin:miter;"/>
   </g>
   <g id="patch_6">
    <path d="M 51.84 172.8 
L 51.84 21.6 
" style="fill:none;stroke:#000000;stroke-linecap:square;stroke-linejoin:miter;"/>
   </g>
   <g id="matplotlib.axis_1">
    <g id="xtick_1">
     <g id="line2d_3">
      <defs>
       <path d="M 0 0 
L 0 -4 
" id="m2170c0c4e0" style="stroke:#000000;stroke-width:0.5;"/>
      </defs>
      <g>
       <use style="stroke:#000000;stroke-width:0.5;" x="51.84" xlink:href="#m2170c0c4e0" y="172.8"/>
      </g>
     </g>
     <g id="line2d_4">
      <defs>
       <path d="M 0 0 
L 0 4 
" id="m782e330b76" style="stroke:#000000;stroke-width:0.5;"/>
      </defs>
      <g>
       <use style="stroke:#000000;stroke-width:0.5;" x="51.84" xlink:href="#m782e330b76" y="21.6"/>
      </g>
     </g>
     <g id="text_1">
      <!-- 0 -->
      <defs>
       <path d="M 31.78125 66.40625 
Q 24.171875 66.40625 20.328125 58.90625 
Q 16.5 51.421875 16.5 36.375 
Q 16.5 21.390625 20.328125 13.890625 
Q 24.171875 6.390625 31.78125 6.390625 
Q 39.453125 6.390625 43.28125 13.890625 
Q 47.125 21.390625 47.125 36.375 
Q 47.125 51.421875 43.28125 58.90625 
Q 39.453125 66.40625 31.78125 66.40625 
M 31.78125 74.21875 
Q 44.046875 74.21875 50.515625 64.515625 
Q 56.984375 54.828125 56.984375 36.375 
Q 56.984375 17.96875 50.515625 8.265625 
Q 44.046875 -1.421875 31.78125 -1.421875 
Q 19.53125 -1.421875 13.0625 8.265625 
Q 6.59375 17.96875 6.59375 36.375 
Q 6.59375 54.828125 13.0625 64.515625 
Q 19.53125 74.21875 31.78125 74.21875 
" id="BitstreamVeraSans-Roman-30"/>
      </defs>
      <g transform="translate(48.65875 184.3984375)scale(0.1 -0.1)">
       <use xlink:href="#BitstreamVeraSans-Roman-30"/>
      </g>
     </g>
    </g>
    <g id="xtick_2">
     <g id="line2d_5">
      <g>
       <use style="stroke:#000000;stroke-width:0.5;" x="82.3813953488" xlink:href="#m2170c0c4e0" y="172.8"/>
      </g>
     </g>
     <g id="line2d_6">
      <g>
       <use style="stroke:#000000;stroke-width:0.5;" x="82.3813953488" xlink:href="#m782e330b76" y="21.6"/>
      </g>
     </g>
     <g id="text_2">
      <!-- 20 -->
      <defs>
       <path d="M 19.1875 8.296875 
L 53.609375 8.296875 
L 53.609375 0 
L 7.328125 0 
L 7.328125 8.296875 
Q 12.9375 14.109375 22.625 23.890625 
Q 32.328125 33.6875 34.8125 36.53125 
Q 39.546875 41.84375 41.421875 45.53125 
Q 43.3125 49.21875 43.3125 52.78125 
Q 43.3125 58.59375 39.234375 62.25 
Q 35.15625 65.921875 28.609375 65.921875 
Q 23.96875 65.921875 18.8125 64.3125 
Q 13.671875 62.703125 7.8125 59.421875 
L 7.8125 69.390625 
Q 13.765625 71.78125 18.9375 73 
Q 24.125 74.21875 28.421875 74.21875 
Q 39.75 74.21875 46.484375 68.546875 
Q 53.21875 62.890625 53.21875 53.421875 
Q 53.21875 48.921875 51.53125 44.890625 
Q 49.859375 40.875 45.40625 35.40625 
Q 44.1875 33.984375 37.640625 27.21875 
Q 31.109375 20.453125 19.1875 8.296875 
" id="BitstreamVeraSans-Roman-32"/>
      </defs>
      <g transform="translate(76.0188953488 184.3984375)scale(0.1 -0.1)">
       <use xlink:href="#BitstreamVeraSans-Roman-32"/>
       <use x="63.623046875" xlink:href="#BitstreamVeraSans-Roman-30"/>
      </g>
     </g>
    </g>
    <g id="xtick_3">
     <g id="line2d_7">
      <g>
       <use style="stroke:#000000;stroke-width:0.5;" x="112.922790698" xlink:href="#m2170c0c4e0" y="172.8"/>
      </g>
     </g>
     <g id="line2d_8">
      <g>
       <use style="stroke:#000000;stroke-width:0.5;" x="112.922790698" xlink:href="#m782e330b76" y="21.6"/>
      </g>
     </g>
     <g id="text_3">
      <!-- 40 -->
      <defs>
       <path d="M 37.796875 64.3125 
L 12.890625 25.390625 
L 37.796875 25.390625 
z
M 35.203125 72.90625 
L 47.609375 72.90625 
L 47.609375 25.390625 
L 58.015625 25.390625 
L 58.015625 17.1875 
L 47.609375 17.1875 
L 47.609375 0 
L 37.796875 0 
L 37.796875 17.1875 
L 4.890625 17.1875 
L 4.890625 26.703125 
z
" id="BitstreamVeraSans-Roman-34"/>
      </defs>
      <g transform="translate(106.560290698 184.3984375)scale(0.1 -0.1)">
       <use xlink:href="#BitstreamVeraSans-Roman-34"/>
       <use x="63.623046875" xlink:href="#BitstreamVeraSans-Roman-30"/>
      </g>
     </g>
    </g>
    <g id="xtick_4">
     <g id="line2d_9">
      <g>
       <use style="stroke:#000000;stroke-width:0.5;" x="143.464186047" xlink:href="#m2170c0c4e0" y="172.8"/>
      </g>
     </g>
     <g id="line2d_10">
      <g>
       <use style="stroke:#000000;stroke-width:0.5;" x="143.464186047" xlink:href="#m782e330b76" y="21.6"/>
      </g>
     </g>
     <g id="text_4">
      <!-- 60 -->
      <defs>
       <path d="M 33.015625 40.375 
Q 26.375 40.375 22.484375 35.828125 
Q 18.609375 31.296875 18.609375 23.390625 
Q 18.609375 15.53125 22.484375 10.953125 
Q 26.375 6.390625 33.015625 6.390625 
Q 39.65625 6.390625 43.53125 10.953125 
Q 47.40625 15.53125 47.40625 23.390625 
Q 47.40625 31.296875 43.53125 35.828125 
Q 39.65625 40.375 33.015625 40.375 
M 52.59375 71.296875 
L 52.59375 62.3125 
Q 48.875 64.0625 45.09375 64.984375 
Q 41.3125 65.921875 37.59375 65.921875 
Q 27.828125 65.921875 22.671875 59.328125 
Q 17.53125 52.734375 16.796875 39.40625 
Q 19.671875 43.65625 24.015625 45.921875 
Q 28.375 48.1875 33.59375 48.1875 
Q 44.578125 48.1875 50.953125 41.515625 
Q 57.328125 34.859375 57.328125 23.390625 
Q 57.328125 12.15625 50.6875 5.359375 
Q 44.046875 -1.421875 33.015625 -1.421875 
Q 20.359375 -1.421875 13.671875 8.265625 
Q 6.984375 17.96875 6.984375 36.375 
Q 6.984375 53.65625 15.1875 63.9375 
Q 23.390625 74.21875 37.203125 74.21875 
Q 40.921875 74.21875 44.703125 73.484375 
Q 48.484375 72.75 52.59375 71.296875 
" id="BitstreamVeraSans-Roman-36"/>
      </defs>
      <g transform="translate(137.101686047 184.3984375)scale(0.1 -0.1)">
       <use xlink:href="#BitstreamVeraSans-Roman-36"/>
       <use x="63.623046875" xlink:href="#BitstreamVeraSans-Roman-30"/>
      </g>
     </g>
    </g>
    <g id="xtick_5">
     <g id="line2d_11">
      <g>
       <use style="stroke:#000000;stroke-width:0.5;" x="174.005581395" xlink:href="#m2170c0c4e0" y="172.8"/>
      </g>
     </g>
     <g id="line2d_12">
      <g>
       <use style="stroke:#000000;stroke-width:0.5;" x="174.005581395" xlink:href="#m782e330b76" y="21.6"/>
      </g>
     </g>
     <g id="text_5">
      <!-- 80 -->
      <defs>
       <path d="M 31.78125 34.625 
Q 24.75 34.625 20.71875 30.859375 
Q 16.703125 27.09375 16.703125 20.515625 
Q 16.703125 13.921875 20.71875 10.15625 
Q 24.75 6.390625 31.78125 6.390625 
Q 38.8125 6.390625 42.859375 10.171875 
Q 46.921875 13.96875 46.921875 20.515625 
Q 46.921875 27.09375 42.890625 30.859375 
Q 38.875 34.625 31.78125 34.625 
M 21.921875 38.8125 
Q 15.578125 40.375 12.03125 44.71875 
Q 8.5 49.078125 8.5 55.328125 
Q 8.5 64.0625 14.71875 69.140625 
Q 20.953125 74.21875 31.78125 74.21875 
Q 42.671875 74.21875 48.875 69.140625 
Q 55.078125 64.0625 55.078125 55.328125 
Q 55.078125 49.078125 51.53125 44.71875 
Q 48 40.375 41.703125 38.8125 
Q 48.828125 37.15625 52.796875 32.3125 
Q 56.78125 27.484375 56.78125 20.515625 
Q 56.78125 9.90625 50.3125 4.234375 
Q 43.84375 -1.421875 31.78125 -1.421875 
Q 19.734375 -1.421875 13.25 4.234375 
Q 6.78125 9.90625 6.78125 20.515625 
Q 6.78125 27.484375 10.78125 32.3125 
Q 14.796875 37.15625 21.921875 38.8125 
M 18.3125 54.390625 
Q 18.3125 48.734375 21.84375 45.5625 
Q 25.390625 42.390625 31.78125 42.390625 
Q 38.140625 42.390625 41.71875 45.5625 
Q 45.3125 48.734375 45.3125 54.390625 
Q 45.3125 60.0625 41.71875 63.234375 
Q 38.140625 66.40625 31.78125 66.40625 
Q 25.390625 66.40625 21.84375 63.234375 
Q 18.3125 60.0625 18.3125 54.390625 
" id="BitstreamVeraSans-Roman-38"/>
      </defs>
      <g transform="translate(167.643081395 184.3984375)scale(0.1 -0.1)">
       <use xlink:href="#BitstreamVeraSans-Roman-38"/>
       <use x="63.623046875" xlink:href="#BitstreamVeraSans-Roman-30"/>
      </g>
     </g>
    </g>
    <g id="xtick_6">
     <g id="line2d_13">
      <g>
       <use style="stroke:#000000;stroke-width:0.5;" x="204.546976744" xlink:href="#m2170c0c4e0" y="172.8"/>
      </g>
     </g>
     <g id="line2d_14">
      <g>
       <use style="stroke:#000000;stroke-width:0.5;" x="204.546976744" xlink:href="#m782e330b76" y="21.6"/>
      </g>
     </g>
     <g id="text_6">
      <!-- 100 -->
      <defs>
       <path d="M 12.40625 8.296875 
L 28.515625 8.296875 
L 28.515625 63.921875 
L 10.984375 60.40625 
L 10.984375 69.390625 
L 28.421875 72.90625 
L 38.28125 72.90625 
L 38.28125 8.296875 
L 54.390625 8.296875 
L 54.390625 0 
L 12.40625 0 
z
" id="BitstreamVeraSans-Roman-31"/>
      </defs>
      <g transform="translate(195.003226744 184.3984375)scale(0.1 -0.1)">
       <use xlink:href="#BitstreamVeraSans-Roman-31"/>
       <use x="63.623046875" xlink:href="#BitstreamVeraSans-Roman-30"/>
       <use x="127.24609375" xlink:href="#BitstreamVeraSans-Roman-30"/>
      </g>
     </g>
    </g>
    <g id="text_7">
     <!-- time $t$ (ps) -->
     <defs>
      <path id="BitstreamVeraSans-Roman-20"/>
      <path d="M 8.015625 75.875 
L 15.828125 75.875 
Q 23.140625 64.359375 26.78125 53.3125 
Q 30.421875 42.28125 30.421875 31.390625 
Q 30.421875 20.453125 26.78125 9.375 
Q 23.140625 -1.703125 15.828125 -13.1875 
L 8.015625 -13.1875 
Q 14.5 -2 17.703125 9.0625 
Q 20.90625 20.125 20.90625 31.390625 
Q 20.90625 42.671875 17.703125 53.65625 
Q 14.5 64.65625 8.015625 75.875 
" id="BitstreamVeraSans-Roman-29"/>
      <path d="M 52 44.1875 
Q 55.375 50.25 60.0625 53.125 
Q 64.75 56 71.09375 56 
Q 79.640625 56 84.28125 50.015625 
Q 88.921875 44.046875 88.921875 33.015625 
L 88.921875 0 
L 79.890625 0 
L 79.890625 32.71875 
Q 79.890625 40.578125 77.09375 44.375 
Q 74.3125 48.1875 68.609375 48.1875 
Q 61.625 48.1875 57.5625 43.546875 
Q 53.515625 38.921875 53.515625 30.90625 
L 53.515625 0 
L 44.484375 0 
L 44.484375 32.71875 
Q 44.484375 40.625 41.703125 44.40625 
Q 38.921875 48.1875 33.109375 48.1875 
Q 26.21875 48.1875 22.15625 43.53125 
Q 18.109375 38.875 18.109375 30.90625 
L 18.109375 0 
L 9.078125 0 
L 9.078125 54.6875 
L 18.109375 54.6875 
L 18.109375 46.1875 
Q 21.1875 51.21875 25.484375 53.609375 
Q 29.78125 56 35.6875 56 
Q 41.65625 56 45.828125 52.96875 
Q 50 49.953125 52 44.1875 
" id="BitstreamVeraSans-Roman-6d"/>
      <path d="M 9.421875 54.6875 
L 18.40625 54.6875 
L 18.40625 0 
L 9.421875 0 
z
M 9.421875 75.984375 
L 18.40625 75.984375 
L 18.40625 64.59375 
L 9.421875 64.59375 
z
" id="BitstreamVeraSans-Roman-69"/>
      <path d="M 6.203125 8.109375 
Q 6.203125 9.578125 6.5 10.890625 
L 13.71875 39.59375 
L 3.21875 39.59375 
Q 2.203125 39.59375 2.203125 40.921875 
Q 2.59375 43.109375 3.515625 43.109375 
L 14.59375 43.109375 
L 18.609375 59.421875 
Q 19 60.75 20.171875 61.671875 
Q 21.34375 62.59375 22.796875 62.59375 
Q 24.078125 62.59375 24.921875 61.828125 
Q 25.78125 61.078125 25.78125 59.8125 
Q 25.78125 59.515625 25.75 59.34375 
Q 25.734375 59.1875 25.6875 58.984375 
L 21.6875 43.109375 
L 31.984375 43.109375 
Q 33.015625 43.109375 33.015625 41.796875 
Q 32.953125 41.546875 32.8125 40.953125 
Q 32.671875 40.375 32.421875 39.984375 
Q 32.171875 39.59375 31.6875 39.59375 
L 20.796875 39.59375 
L 13.625 10.6875 
Q 12.890625 7.859375 12.890625 5.8125 
Q 12.890625 1.515625 15.828125 1.515625 
Q 20.21875 1.515625 23.609375 5.640625 
Q 27 9.765625 28.8125 14.703125 
Q 29.203125 15.28125 29.59375 15.28125 
L 30.8125 15.28125 
Q 31.203125 15.28125 31.4375 15.015625 
Q 31.6875 14.75 31.6875 14.40625 
Q 31.6875 14.203125 31.59375 14.109375 
Q 29.390625 8.0625 25.1875 3.46875 
Q 21 -1.125 15.578125 -1.125 
Q 11.625 -1.125 8.90625 1.453125 
Q 6.203125 4.046875 6.203125 8.109375 
" id="Cmmi10-74"/>
      <path d="M 31 75.875 
Q 24.46875 64.65625 21.28125 53.65625 
Q 18.109375 42.671875 18.109375 31.390625 
Q 18.109375 20.125 21.3125 9.0625 
Q 24.515625 -2 31 -13.1875 
L 23.1875 -13.1875 
Q 15.875 -1.703125 12.234375 9.375 
Q 8.59375 20.453125 8.59375 31.390625 
Q 8.59375 42.28125 12.203125 53.3125 
Q 15.828125 64.359375 23.1875 75.875 
z
" id="BitstreamVeraSans-Roman-28"/>
      <path d="M 56.203125 29.59375 
L 56.203125 25.203125 
L 14.890625 25.203125 
Q 15.484375 15.921875 20.484375 11.0625 
Q 25.484375 6.203125 34.421875 6.203125 
Q 39.59375 6.203125 44.453125 7.46875 
Q 49.3125 8.734375 54.109375 11.28125 
L 54.109375 2.78125 
Q 49.265625 0.734375 44.1875 -0.34375 
Q 39.109375 -1.421875 33.890625 -1.421875 
Q 20.796875 -1.421875 13.15625 6.1875 
Q 5.515625 13.8125 5.515625 26.8125 
Q 5.515625 40.234375 12.765625 48.109375 
Q 20.015625 56 32.328125 56 
Q 43.359375 56 49.78125 48.890625 
Q 56.203125 41.796875 56.203125 29.59375 
M 47.21875 32.234375 
Q 47.125 39.59375 43.09375 43.984375 
Q 39.0625 48.390625 32.421875 48.390625 
Q 24.90625 48.390625 20.390625 44.140625 
Q 15.875 39.890625 15.1875 32.171875 
z
" id="BitstreamVeraSans-Roman-65"/>
      <path d="M 18.3125 70.21875 
L 18.3125 54.6875 
L 36.8125 54.6875 
L 36.8125 47.703125 
L 18.3125 47.703125 
L 18.3125 18.015625 
Q 18.3125 11.328125 20.140625 9.421875 
Q 21.96875 7.515625 27.59375 7.515625 
L 36.8125 7.515625 
L 36.8125 0 
L 27.59375 0 
Q 17.1875 0 13.234375 3.875 
Q 9.28125 7.765625 9.28125 18.015625 
L 9.28125 47.703125 
L 2.6875 47.703125 
L 2.6875 54.6875 
L 9.28125 54.6875 
L 9.28125 70.21875 
z
" id="BitstreamVeraSans-Roman-74"/>
      <path d="M 44.28125 53.078125 
L 44.28125 44.578125 
Q 40.484375 46.53125 36.375 47.5 
Q 32.28125 48.484375 27.875 48.484375 
Q 21.1875 48.484375 17.84375 46.4375 
Q 14.5 44.390625 14.5 40.28125 
Q 14.5 37.15625 16.890625 35.375 
Q 19.28125 33.59375 26.515625 31.984375 
L 29.59375 31.296875 
Q 39.15625 29.25 43.1875 25.515625 
Q 47.21875 21.78125 47.21875 15.09375 
Q 47.21875 7.46875 41.1875 3.015625 
Q 35.15625 -1.421875 24.609375 -1.421875 
Q 20.21875 -1.421875 15.453125 -0.5625 
Q 10.6875 0.296875 5.421875 2 
L 5.421875 11.28125 
Q 10.40625 8.6875 15.234375 7.390625 
Q 20.0625 6.109375 24.8125 6.109375 
Q 31.15625 6.109375 34.5625 8.28125 
Q 37.984375 10.453125 37.984375 14.40625 
Q 37.984375 18.0625 35.515625 20.015625 
Q 33.0625 21.96875 24.703125 23.78125 
L 21.578125 24.515625 
Q 13.234375 26.265625 9.515625 29.90625 
Q 5.8125 33.546875 5.8125 39.890625 
Q 5.8125 47.609375 11.28125 51.796875 
Q 16.75 56 26.8125 56 
Q 31.78125 56 36.171875 55.265625 
Q 40.578125 54.546875 44.28125 53.078125 
" id="BitstreamVeraSans-Roman-73"/>
      <path d="M 18.109375 8.203125 
L 18.109375 -20.796875 
L 9.078125 -20.796875 
L 9.078125 54.6875 
L 18.109375 54.6875 
L 18.109375 46.390625 
Q 20.953125 51.265625 25.265625 53.625 
Q 29.59375 56 35.59375 56 
Q 45.5625 56 51.78125 48.09375 
Q 58.015625 40.1875 58.015625 27.296875 
Q 58.015625 14.40625 51.78125 6.484375 
Q 45.5625 -1.421875 35.59375 -1.421875 
Q 29.59375 -1.421875 25.265625 0.953125 
Q 20.953125 3.328125 18.109375 8.203125 
M 48.6875 27.296875 
Q 48.6875 37.203125 44.609375 42.84375 
Q 40.53125 48.484375 33.40625 48.484375 
Q 26.265625 48.484375 22.1875 42.84375 
Q 18.109375 37.203125 18.109375 27.296875 
Q 18.109375 17.390625 22.1875 11.75 
Q 26.265625 6.109375 33.40625 6.109375 
Q 40.53125 6.109375 44.609375 11.75 
Q 48.6875 17.390625 48.6875 27.296875 
" id="BitstreamVeraSans-Roman-70"/>
     </defs>
     <g transform="translate(102.193488372 199.078125)scale(0.1 -0.1)">
      <use transform="translate(0.0 0.015625)" xlink:href="#BitstreamVeraSans-Roman-74"/>
      <use transform="translate(39.208984375 0.015625)" xlink:href="#BitstreamVeraSans-Roman-69"/>
      <use transform="translate(66.9921875 0.015625)" xlink:href="#BitstreamVeraSans-Roman-6d"/>
      <use transform="translate(164.404296875 0.015625)" xlink:href="#BitstreamVeraSans-Roman-65"/>
      <use transform="translate(225.927734375 0.015625)" xlink:href="#BitstreamVeraSans-Roman-20"/>
      <use transform="translate(257.71484375 0.015625)" xlink:href="#Cmmi10-74"/>
      <use transform="translate(293.798828125 0.015625)" xlink:href="#BitstreamVeraSans-Roman-20"/>
      <use transform="translate(325.5859375 0.015625)" xlink:href="#BitstreamVeraSans-Roman-28"/>
      <use transform="translate(364.599609375 0.015625)" xlink:href="#BitstreamVeraSans-Roman-70"/>
      <use transform="translate(428.076171875 0.015625)" xlink:href="#BitstreamVeraSans-Roman-73"/>
      <use transform="translate(480.17578125 0.015625)" xlink:href="#BitstreamVeraSans-Roman-29"/>
     </g>
    </g>
   </g>
   <g id="matplotlib.axis_2">
    <g id="ytick_1">
     <g id="line2d_15">
      <defs>
       <path d="M 0 0 
L 4 0 
" id="me7293bc1e6" style="stroke:#000000;stroke-width:0.5;"/>
      </defs>
      <g>
       <use style="stroke:#000000;stroke-width:0.5;" x="51.84" xlink:href="#me7293bc1e6" y="172.8"/>
      </g>
     </g>
     <g id="line2d_16">
      <defs>
       <path d="M 0 0 
L -4 0 
" id="m22a4dfaf05" style="stroke:#000000;stroke-width:0.5;"/>
      </defs>
      <g>
       <use style="stroke:#000000;stroke-width:0.5;" x="204.546976744" xlink:href="#m22a4dfaf05" y="172.8"/>
      </g>
     </g>
     <g id="text_8">
      <!-- 40$^\circ$ -->
      <defs>
       <path d="M 25 5.609375 
Q 19.828125 5.609375 15.359375 8.21875 
Q 10.890625 10.84375 8.25 15.375 
Q 5.609375 19.921875 5.609375 25 
Q 5.609375 30.078125 8.25 34.609375 
Q 10.890625 39.15625 15.359375 41.765625 
Q 19.828125 44.390625 25 44.390625 
Q 30.171875 44.390625 34.609375 41.75 
Q 39.0625 39.109375 41.671875 34.59375 
Q 44.28125 30.078125 44.28125 25 
Q 44.28125 19.921875 41.671875 15.40625 
Q 39.0625 10.890625 34.609375 8.25 
Q 30.171875 5.609375 25 5.609375 
M 25 9.625 
Q 31.25 9.625 35.765625 14.1875 
Q 40.28125 18.75 40.28125 25 
Q 40.28125 29 38.203125 32.59375 
Q 36.140625 36.1875 32.625 38.28125 
Q 29.109375 40.375 25 40.375 
Q 21.921875 40.375 19.140625 39.171875 
Q 16.359375 37.984375 14.15625 35.78125 
Q 11.96875 33.59375 10.796875 30.828125 
Q 9.625 28.078125 9.625 25 
Q 9.625 18.75 14.140625 14.1875 
Q 18.65625 9.625 25 9.625 
" id="Cmsy10-b1"/>
      </defs>
      <g transform="translate(28.04 175.559375)scale(0.1 -0.1)">
       <use transform="translate(0.0 0.78125)" xlink:href="#BitstreamVeraSans-Roman-34"/>
       <use transform="translate(63.623046875 0.78125)" xlink:href="#BitstreamVeraSans-Roman-30"/>
       <use transform="translate(144.00125 39.0453125)scale(0.7)" xlink:href="#Cmsy10-b1"/>
      </g>
     </g>
    </g>
    <g id="ytick_2">
     <g id="line2d_17">
      <g>
       <use style="stroke:#000000;stroke-width:0.5;" x="51.84" xlink:href="#me7293bc1e6" y="147.6"/>
      </g>
     </g>
     <g id="line2d_18">
      <g>
       <use style="stroke:#000000;stroke-width:0.5;" x="204.546976744" xlink:href="#m22a4dfaf05" y="147.6"/>
      </g>
     </g>
     <g id="text_9">
      <!-- 60$^\circ$ -->
      <g transform="translate(28.04 150.359375)scale(0.1 -0.1)">
       <use transform="translate(0.0 0.78125)" xlink:href="#BitstreamVeraSans-Roman-36"/>
       <use transform="translate(63.623046875 0.78125)" xlink:href="#BitstreamVeraSans-Roman-30"/>
       <use transform="translate(144.00125 39.0453125)scale(0.7)" xlink:href="#Cmsy10-b1"/>
      </g>
     </g>
    </g>
    <g id="ytick_3">
     <g id="line2d_19">
      <g>
       <use style="stroke:#000000;stroke-width:0.5;" x="51.84" xlink:href="#me7293bc1e6" y="122.4"/>
      </g>
     </g>
     <g id="line2d_20">
      <g>
       <use style="stroke:#000000;stroke-width:0.5;" x="204.546976744" xlink:href="#m22a4dfaf05" y="122.4"/>
      </g>
     </g>
     <g id="text_10">
      <!-- 80$^\circ$ -->
      <g transform="translate(28.04 125.159375)scale(0.1 -0.1)">
       <use transform="translate(0.0 0.78125)" xlink:href="#BitstreamVeraSans-Roman-38"/>
       <use transform="translate(63.623046875 0.78125)" xlink:href="#BitstreamVeraSans-Roman-30"/>
       <use transform="translate(144.00125 39.0453125)scale(0.7)" xlink:href="#Cmsy10-b1"/>
      </g>
     </g>
    </g>
    <g id="ytick_4">
     <g id="line2d_21">
      <g>
       <use style="stroke:#000000;stroke-width:0.5;" x="51.84" xlink:href="#me7293bc1e6" y="97.2"/>
      </g>
     </g>
     <g id="line2d_22">
      <g>
       <use style="stroke:#000000;stroke-width:0.5;" x="204.546976744" xlink:href="#m22a4dfaf05" y="97.2"/>
      </g>
     </g>
     <g id="text_11">
      <!-- 100$^\circ$ -->
      <g transform="translate(21.64 99.959375)scale(0.1 -0.1)">
       <use transform="translate(0.0 0.78125)" xlink:href="#BitstreamVeraSans-Roman-31"/>
       <use transform="translate(63.623046875 0.78125)" xlink:href="#BitstreamVeraSans-Roman-30"/>
       <use transform="translate(127.24609375 0.78125)" xlink:href="#BitstreamVeraSans-Roman-30"/>
       <use transform="translate(207.624296875 39.0453125)scale(0.7)" xlink:href="#Cmsy10-b1"/>
      </g>
     </g>
    </g>
    <g id="ytick_5">
     <g id="line2d_23">
      <g>
       <use style="stroke:#000000;stroke-width:0.5;" x="51.84" xlink:href="#me7293bc1e6" y="72.0"/>
      </g>
     </g>
     <g id="line2d_24">
      <g>
       <use style="stroke:#000000;stroke-width:0.5;" x="204.546976744" xlink:href="#m22a4dfaf05" y="72.0"/>
      </g>
     </g>
     <g id="text_12">
      <!-- 120$^\circ$ -->
      <g transform="translate(21.64 74.759375)scale(0.1 -0.1)">
       <use transform="translate(0.0 0.78125)" xlink:href="#BitstreamVeraSans-Roman-31"/>
       <use transform="translate(63.623046875 0.78125)" xlink:href="#BitstreamVeraSans-Roman-32"/>
       <use transform="translate(127.24609375 0.78125)" xlink:href="#BitstreamVeraSans-Roman-30"/>
       <use transform="translate(207.624296875 39.0453125)scale(0.7)" xlink:href="#Cmsy10-b1"/>
      </g>
     </g>
    </g>
    <g id="ytick_6">
     <g id="line2d_25">
      <g>
       <use style="stroke:#000000;stroke-width:0.5;" x="51.84" xlink:href="#me7293bc1e6" y="46.8"/>
      </g>
     </g>
     <g id="line2d_26">
      <g>
       <use style="stroke:#000000;stroke-width:0.5;" x="204.546976744" xlink:href="#m22a4dfaf05" y="46.8"/>
      </g>
     </g>
     <g id="text_13">
      <!-- 140$^\circ$ -->
      <g transform="translate(21.64 49.559375)scale(0.1 -0.1)">
       <use transform="translate(0.0 0.78125)" xlink:href="#BitstreamVeraSans-Roman-31"/>
       <use transform="translate(63.623046875 0.78125)" xlink:href="#BitstreamVeraSans-Roman-34"/>
       <use transform="translate(127.24609375 0.78125)" xlink:href="#BitstreamVeraSans-Roman-30"/>
       <use transform="translate(207.624296875 39.0453125)scale(0.7)" xlink:href="#Cmsy10-b1"/>
      </g>
     </g>
    </g>
    <g id="ytick_7">
     <g id="line2d_27">
      <g>
       <use style="stroke:#000000;stroke-width:0.5;" x="51.84" xlink:href="#me7293bc1e6" y="21.6"/>
      </g>
     </g>
     <g id="line2d_28">
      <g>
       <use style="stroke:#000000;stroke-width:0.5;" x="204.546976744" xlink:href="#m22a4dfaf05" y="21.6"/>
      </g>
     </g>
     <g id="text_14">
      <!-- 160$^\circ$ -->
      <g transform="translate(21.64 24.359375)scale(0.1 -0.1)">
       <use transform="translate(0.0 0.78125)" xlink:href="#BitstreamVeraSans-Roman-31"/>
       <use transform="translate(63.623046875 0.78125)" xlink:href="#BitstreamVeraSans-Roman-36"/>
       <use transform="translate(127.24609375 0.78125)" xlink:href="#BitstreamVeraSans-Roman-30"/>
       <use transform="translate(207.624296875 39.0453125)scale(0.7)" xlink:href="#Cmsy10-b1"/>
      </g>
     </g>
    </g>
    <g id="text_15">
     <!-- angle $\theta$ -->
     <defs>
      <path d="M 54.890625 33.015625 
L 54.890625 0 
L 45.90625 0 
L 45.90625 32.71875 
Q 45.90625 40.484375 42.875 44.328125 
Q 39.84375 48.1875 33.796875 48.1875 
Q 26.515625 48.1875 22.3125 43.546875 
Q 18.109375 38.921875 18.109375 30.90625 
L 18.109375 0 
L 9.078125 0 
L 9.078125 54.6875 
L 18.109375 54.6875 
L 18.109375 46.1875 
Q 21.34375 51.125 25.703125 53.5625 
Q 30.078125 56 35.796875 56 
Q 45.21875 56 50.046875 50.171875 
Q 54.890625 44.34375 54.890625 33.015625 
" id="BitstreamVeraSans-Roman-6e"/>
      <path d="M 16.109375 -1.125 
Q 11.578125 -1.125 8.84375 2.1875 
Q 6.109375 5.515625 5.046875 10.203125 
Q 4 14.890625 4 19.484375 
L 4 19.578125 
Q 4 24.5625 4.953125 29.921875 
Q 5.90625 35.296875 7.703125 40.640625 
Q 9.515625 46 11.625 50.203125 
Q 13.09375 53.125 15.40625 56.734375 
Q 17.71875 60.359375 20.578125 63.5 
Q 23.4375 66.65625 26.734375 68.578125 
Q 30.03125 70.515625 33.40625 70.515625 
L 33.5 70.515625 
Q 37.109375 70.515625 39.515625 68.5 
Q 41.9375 66.5 43.28125 63.375 
Q 44.625 60.25 45.15625 56.6875 
Q 45.703125 53.125 45.703125 49.90625 
Q 45.703125 42.328125 43.65625 34.4375 
Q 41.609375 26.5625 37.984375 19.1875 
Q 36.625 16.40625 34.203125 12.640625 
Q 31.78125 8.890625 29.078125 5.90625 
Q 26.375 2.9375 23 0.90625 
Q 19.625 -1.125 16.21875 -1.125 
z
M 16.3125 1.515625 
Q 19.625 1.515625 22.671875 5.046875 
Q 25.734375 8.59375 28.03125 13.640625 
Q 30.328125 18.703125 32.0625 24 
Q 33.796875 29.296875 34.625 33.015625 
L 14.203125 33.015625 
Q 12.640625 26.703125 11.765625 22.140625 
Q 10.890625 17.578125 10.890625 13.1875 
Q 10.890625 1.515625 16.3125 1.515625 
M 14.984375 36.53125 
L 35.5 36.53125 
Q 36.578125 40.921875 37.203125 43.875 
Q 37.84375 46.828125 38.28125 50.09375 
Q 38.71875 53.375 38.71875 56.203125 
Q 38.71875 67.921875 33.40625 67.921875 
Q 27.046875 67.921875 22.4375 57.6875 
Q 17.828125 47.46875 14.984375 36.53125 
" id="Cmmi10-b5"/>
      <path d="M 45.40625 27.984375 
Q 45.40625 37.75 41.375 43.109375 
Q 37.359375 48.484375 30.078125 48.484375 
Q 22.859375 48.484375 18.828125 43.109375 
Q 14.796875 37.75 14.796875 27.984375 
Q 14.796875 18.265625 18.828125 12.890625 
Q 22.859375 7.515625 30.078125 7.515625 
Q 37.359375 7.515625 41.375 12.890625 
Q 45.40625 18.265625 45.40625 27.984375 
M 54.390625 6.78125 
Q 54.390625 -7.171875 48.1875 -13.984375 
Q 42 -20.796875 29.203125 -20.796875 
Q 24.46875 -20.796875 20.265625 -20.09375 
Q 16.0625 -19.390625 12.109375 -17.921875 
L 12.109375 -9.1875 
Q 16.0625 -11.328125 19.921875 -12.34375 
Q 23.78125 -13.375 27.78125 -13.375 
Q 36.625 -13.375 41.015625 -8.765625 
Q 45.40625 -4.15625 45.40625 5.171875 
L 45.40625 9.625 
Q 42.625 4.78125 38.28125 2.390625 
Q 33.9375 0 27.875 0 
Q 17.828125 0 11.671875 7.65625 
Q 5.515625 15.328125 5.515625 27.984375 
Q 5.515625 40.671875 11.671875 48.328125 
Q 17.828125 56 27.875 56 
Q 33.9375 56 38.28125 53.609375 
Q 42.625 51.21875 45.40625 46.390625 
L 45.40625 54.6875 
L 54.390625 54.6875 
z
" id="BitstreamVeraSans-Roman-67"/>
      <path d="M 34.28125 27.484375 
Q 23.390625 27.484375 19.1875 25 
Q 14.984375 22.515625 14.984375 16.5 
Q 14.984375 11.71875 18.140625 8.90625 
Q 21.296875 6.109375 26.703125 6.109375 
Q 34.1875 6.109375 38.703125 11.40625 
Q 43.21875 16.703125 43.21875 25.484375 
L 43.21875 27.484375 
z
M 52.203125 31.203125 
L 52.203125 0 
L 43.21875 0 
L 43.21875 8.296875 
Q 40.140625 3.328125 35.546875 0.953125 
Q 30.953125 -1.421875 24.3125 -1.421875 
Q 15.921875 -1.421875 10.953125 3.296875 
Q 6 8.015625 6 15.921875 
Q 6 25.140625 12.171875 29.828125 
Q 18.359375 34.515625 30.609375 34.515625 
L 43.21875 34.515625 
L 43.21875 35.40625 
Q 43.21875 41.609375 39.140625 45 
Q 35.0625 48.390625 27.6875 48.390625 
Q 23 48.390625 18.546875 47.265625 
Q 14.109375 46.140625 10.015625 43.890625 
L 10.015625 52.203125 
Q 14.9375 54.109375 19.578125 55.046875 
Q 24.21875 56 28.609375 56 
Q 40.484375 56 46.34375 49.84375 
Q 52.203125 43.703125 52.203125 31.203125 
" id="BitstreamVeraSans-Roman-61"/>
      <path d="M 9.421875 75.984375 
L 18.40625 75.984375 
L 18.40625 0 
L 9.421875 0 
z
" id="BitstreamVeraSans-Roman-6c"/>
     </defs>
     <g transform="translate(14.54 115.05)rotate(-90.0)scale(0.1 -0.1)">
      <use transform="translate(0.0 0.015625)" xlink:href="#BitstreamVeraSans-Roman-61"/>
      <use transform="translate(61.279296875 0.015625)" xlink:href="#BitstreamVeraSans-Roman-6e"/>
      <use transform="translate(124.658203125 0.015625)" xlink:href="#BitstreamVeraSans-Roman-67"/>
      <use transform="translate(188.134765625 0.015625)" xlink:href="#BitstreamVeraSans-Roman-6c"/>
      <use transform="translate(215.91796875 0.015625)" xlink:href="#BitstreamVeraSans-Roman-65"/>
      <use transform="translate(277.44140625 0.015625)" xlink:href="#BitstreamVeraSans-Roman-20"/>
      <use transform="translate(309.228515625 0.015625)" xlink:href="#Cmmi10-b5"/>
     </g>
    </g>
   </g>
   <g id="legend_1">
    <g id="patch_7">
     <path d="M 129.186977 116.61375 
L 198.546977 116.61375 
L 198.546977 77.78625 
L 129.186977 77.78625 
z
" style="fill:#ffffff;stroke:#000000;stroke-linejoin:miter;"/>
    </g>
    <g id="line2d_29">
     <path d="M 137.586977 87.504375 
L 154.386977 87.504375 
" style="fill:none;stroke:#0000ff;stroke-linecap:square;stroke-width:2.0;"/>
    </g>
    <g id="line2d_30"/>
    <g id="text_16">
     <!-- $\theta_{\mathrm{NMP}}$ -->
     <defs>
      <path d="M 3.328125 0 
L 3.328125 3.515625 
Q 13.625 3.515625 13.625 6.6875 
L 13.625 61.625 
Q 13.625 64.796875 3.328125 64.796875 
L 3.328125 68.3125 
L 38.921875 68.3125 
Q 44.390625 68.3125 49.859375 66.0625 
Q 55.328125 63.8125 58.859375 59.515625 
Q 62.40625 55.21875 62.40625 49.515625 
Q 62.40625 43.953125 58.84375 39.75 
Q 55.28125 35.546875 49.859375 33.375 
Q 44.4375 31.203125 38.921875 31.203125 
L 22.90625 31.203125 
L 22.90625 6.6875 
Q 22.90625 3.515625 33.203125 3.515625 
L 33.203125 0 
z
M 22.609375 34.1875 
L 36.1875 34.1875 
Q 41.703125 34.1875 45.109375 35.765625 
Q 48.53125 37.359375 50.109375 40.703125 
Q 51.703125 44.046875 51.703125 49.515625 
Q 51.703125 57.671875 48.109375 61.234375 
Q 44.53125 64.796875 36.1875 64.796875 
L 27.6875 64.796875 
Q 25.875 64.796875 24.875 64.640625 
Q 23.875 64.5 23.234375 63.796875 
Q 22.609375 63.09375 22.609375 61.625 
z
" id="Cmr10-50"/>
      <path d="M 3.515625 0 
L 3.515625 3.515625 
Q 13.8125 3.515625 13.8125 9.421875 
L 13.8125 61.625 
Q 13.8125 64.796875 3.515625 64.796875 
L 3.515625 68.3125 
L 22.40625 68.3125 
Q 23.640625 68.3125 24.03125 67.1875 
L 45.796875 10.59375 
L 67.578125 67.1875 
Q 67.96875 68.3125 69.1875 68.3125 
L 88.09375 68.3125 
L 88.09375 64.796875 
Q 77.78125 64.796875 77.78125 61.625 
L 77.78125 6.6875 
Q 77.78125 3.515625 88.09375 3.515625 
L 88.09375 0 
L 58.984375 0 
L 58.984375 3.515625 
Q 69.28125 3.515625 69.28125 6.6875 
L 69.28125 64.890625 
L 44.671875 1.125 
Q 44.234375 0 43.015625 0 
Q 41.75 0 41.3125 1.125 
L 17 64.109375 
L 17 9.421875 
Q 17 3.515625 27.296875 3.515625 
L 27.296875 0 
z
" id="Cmr10-4d"/>
      <path d="M 3.078125 0 
L 3.078125 3.515625 
Q 13.375 3.515625 13.375 9.421875 
L 13.375 64.203125 
Q 10.109375 64.796875 3.078125 64.796875 
L 3.078125 68.3125 
L 22.21875 68.3125 
Q 22.703125 68.3125 22.90625 67.921875 
L 58.296875 15.828125 
L 58.296875 58.890625 
Q 58.296875 64.796875 48 64.796875 
L 48 68.3125 
L 71.78125 68.3125 
L 71.78125 64.796875 
Q 61.53125 64.796875 61.53125 58.890625 
L 61.53125 0.875 
Q 61.53125 0.59375 61.140625 0.296875 
Q 60.75 0 60.5 0 
L 59.28125 0 
Q 58.796875 0 58.59375 0.390625 
L 16.609375 62.203125 
L 16.609375 9.421875 
Q 16.609375 3.515625 26.90625 3.515625 
L 26.90625 0 
z
" id="Cmr10-4e"/>
     </defs>
     <g transform="translate(167.586976744 91.704375)scale(0.12 -0.12)">
      <use transform="translate(0.0 0.484375)" xlink:href="#Cmmi10-b5"/>
      <use transform="translate(46.923828125 -16.521875)scale(0.7)" xlink:href="#Cmr10-4e"/>
      <use transform="translate(99.423828125 -16.521875)scale(0.7)" xlink:href="#Cmr10-4d"/>
      <use transform="translate(163.544921875 -16.521875)scale(0.7)" xlink:href="#Cmr10-50"/>
     </g>
    </g>
    <g id="line2d_31">
     <path d="M 137.586977 105.118125 
L 154.386977 105.118125 
" style="fill:none;stroke:#ff0000;stroke-linecap:square;stroke-width:2.0;"/>
    </g>
    <g id="line2d_32"/>
    <g id="text_17">
     <!-- $\theta_{\mathrm{LID}}$ -->
     <defs>
      <path d="M 3.078125 0 
L 3.078125 3.515625 
Q 13.375 3.515625 13.375 6.6875 
L 13.375 61.625 
Q 13.375 64.796875 3.078125 64.796875 
L 3.078125 68.3125 
L 35.5 68.3125 
L 35.5 64.796875 
Q 22.703125 64.796875 22.703125 61.625 
L 22.703125 6.6875 
Q 22.703125 4.546875 23.921875 4.03125 
Q 25.140625 3.515625 27.78125 3.515625 
L 35.5 3.515625 
Q 42.96875 3.515625 47.015625 6.25 
Q 51.078125 8.984375 52.75 13.6875 
Q 54.4375 18.40625 55.328125 26.21875 
L 58.203125 26.21875 
L 55.421875 0 
z
" id="Cmr10-4c"/>
      <path d="M 2.59375 0 
L 2.59375 3.515625 
Q 13.375 3.515625 13.375 6.6875 
L 13.375 61.625 
Q 13.375 64.796875 2.59375 64.796875 
L 2.59375 68.3125 
L 33.5 68.3125 
L 33.5 64.796875 
Q 22.703125 64.796875 22.703125 61.625 
L 22.703125 6.6875 
Q 22.703125 3.515625 33.5 3.515625 
L 33.5 0 
z
" id="Cmr10-49"/>
      <path d="M 3.328125 0 
L 3.328125 3.515625 
Q 13.625 3.515625 13.625 6.6875 
L 13.625 61.625 
Q 13.625 64.796875 3.328125 64.796875 
L 3.328125 68.3125 
L 40.1875 68.3125 
Q 47.015625 68.3125 52.671875 65.359375 
Q 58.34375 62.40625 62.34375 57.46875 
Q 66.359375 52.546875 68.53125 46.296875 
Q 70.703125 40.046875 70.703125 33.5 
Q 70.703125 27.15625 68.5 21.171875 
Q 66.3125 15.1875 62.1875 10.375 
Q 58.0625 5.5625 52.421875 2.78125 
Q 46.78125 0 40.1875 0 
z
M 22.609375 6.6875 
Q 22.609375 4.546875 23.828125 4.03125 
Q 25.046875 3.515625 27.6875 3.515625 
L 37.59375 3.515625 
Q 42.71875 3.515625 47.328125 5.734375 
Q 51.953125 7.953125 54.984375 11.921875 
Q 58.15625 16.109375 59.21875 21.3125 
Q 60.296875 26.515625 60.296875 33.5 
Q 60.296875 40.765625 59.21875 46.234375 
Q 58.15625 51.703125 54.984375 56 
Q 52 60.25 47.40625 62.515625 
Q 42.828125 64.796875 37.59375 64.796875 
L 27.6875 64.796875 
Q 25.875 64.796875 24.875 64.640625 
Q 23.875 64.5 23.234375 63.796875 
Q 22.609375 63.09375 22.609375 61.625 
z
" id="Cmr10-44"/>
     </defs>
     <g transform="translate(167.586976744 109.318125)scale(0.12 -0.12)">
      <use transform="translate(0.0 0.484375)" xlink:href="#Cmmi10-b5"/>
      <use transform="translate(46.923828125 -16.521875)scale(0.7)" xlink:href="#Cmr10-4c"/>
      <use transform="translate(90.673828125 -16.521875)scale(0.7)" xlink:href="#Cmr10-49"/>
      <use transform="translate(115.932617188 -16.521875)scale(0.7)" xlink:href="#Cmr10-44"/>
     </g>
    </g>
   </g>
  </g>
  <g id="axes_2">
   <g id="patch_8">
    <path d="M 227.453023 172.8 
L 380.16 172.8 
L 380.16 21.6 
L 227.453023 21.6 
z
" style="fill:#ffffff;"/>
   </g>
   <g id="line2d_33">
    <path clip-path="url(#p5144b9aae7)" d="M 245.449849 166.050392 
L 247.821149 165.424955 
L 249.589447 165.100265 
L 249.806281 162.710336 
L 251.540992 161.796354 
L 250.070467 157.150514 
L 250.120798 152.07442 
L 251.23523 147.375516 
L 250.524775 144.853235 
L 252.46908 140.088296 
L 255.997969 139.693879 
L 256.685921 139.517076 
L 258.487689 134.795999 
L 261.206461 132.368976 
L 262.084018 130.032213 
L 260.677889 127.186805 
L 264.046964 124.128014 
L 263.104679 123.968514 
L 260.583169 118.324918 
L 261.546625 116.311384 
L 261.961071 115.573564 
L 261.955346 116.300592 
L 263.960983 114.026122 
L 264.214251 114.970994 
L 264.793603 111.736501 
L 265.12007 108.215054 
L 265.304582 106.354124 
L 266.741153 98.309165 
L 267.82055 97.079619 
L 267.3244 90.90041 
L 267.57344 90.480564 
L 269.284833 91.205054 
L 270.088492 87.320054 
L 270.470832 86.419504 
L 269.826969 84.870344 
L 270.649919 83.716677 
L 270.846997 80.415535 
L 273.097347 81.116184 
L 272.985568 78.82946 
L 274.160949 79.21229 
L 276.8218 78.146448 
L 278.48897 73.837551 
L 280.69633 75.416345 
L 280.30918 74.211152 
L 281.111641 73.942397 
L 284.110343 73.429292 
L 286.78912 71.389021 
L 289.334414 66.426694 
L 291.250724 66.635515 
L 295.742287 64.922856 
L 296.317827 62.68771 
L 301.389308 60.775305 
L 305.50126 56.244104 
L 309.156891 59.805132 
L 311.306314 64.346638 
L 314.059788 62.763999 
L 315.844712 57.902622 
L 318.548521 59.009634 
L 323.168756 57.62269 
L 324.409414 61.505435 
L 328.012085 58.513909 
L 327.339212 56.749365 
L 330.737514 56.378584 
L 332.993739 54.978362 
L 335.274464 49.459453 
L 337.429828 47.681067 
L 340.600028 47.105823 
L 342.382439 45.94908 
L 345.391561 45.190649 
L 344.366906 43.935315 
L 348.291167 40.84771 
L 349.968223 39.977051 
L 351.110416 36.440222 
L 352.841964 35.710708 
L 351.448284 36.086052 
L 352.914032 36.629714 
L 355.568342 35.279172 
L 357.265338 34.410872 
L 357.554539 35.464204 
L 360.272129 36.042781 
L 361.036842 36.264778 
L 364.6974 41.075244 
L 364.766871 37.635417 
L 361.932875 37.46105 
L 361.329506 37.107905 
L 360.779297 39.887483 
L 361.294887 39.382427 
L 363.635396 37.854954 
L 363.057692 37.960928 
L 362.833235 36.764861 
L 362.654314 36.327634 
L 362.869651 36.382134 
L 362.137094 37.48084 
L 362.74682 36.305947 
L 364.791138 38.850095 
L 367.024628 38.867629 
L 365.607846 40.511638 
L 366.458874 38.924487 
" style="fill:none;stroke:#000000;stroke-linecap:square;stroke-width:3.0;"/>
   </g>
   <g id="patch_9">
    <path d="M 227.453023 21.6 
L 380.16 21.6 
" style="fill:none;stroke:#000000;stroke-linecap:square;stroke-linejoin:miter;"/>
   </g>
   <g id="patch_10">
    <path d="M 380.16 172.8 
L 380.16 21.6 
" style="fill:none;stroke:#000000;stroke-linecap:square;stroke-linejoin:miter;"/>
   </g>
   <g id="patch_11">
    <path d="M 227.453023 172.8 
L 380.16 172.8 
" style="fill:none;stroke:#000000;stroke-linecap:square;stroke-linejoin:miter;"/>
   </g>
   <g id="patch_12">
    <path d="M 227.453023 172.8 
L 227.453023 21.6 
" style="fill:none;stroke:#000000;stroke-linecap:square;stroke-linejoin:miter;"/>
   </g>
   <g id="matplotlib.axis_3">
    <g id="xtick_7">
     <g id="line2d_34">
      <g>
       <use style="stroke:#000000;stroke-width:0.5;" x="227.453023256" xlink:href="#m2170c0c4e0" y="172.8"/>
      </g>
     </g>
     <g id="line2d_35">
      <g>
       <use style="stroke:#000000;stroke-width:0.5;" x="227.453023256" xlink:href="#m782e330b76" y="21.6"/>
      </g>
     </g>
     <g id="text_18">
      <!-- 40$^\circ$ -->
      <g transform="translate(217.553023256 184.3984375)scale(0.1 -0.1)">
       <use transform="translate(0.0 0.78125)" xlink:href="#BitstreamVeraSans-Roman-34"/>
       <use transform="translate(63.623046875 0.78125)" xlink:href="#BitstreamVeraSans-Roman-30"/>
       <use transform="translate(144.00125 39.0453125)scale(0.7)" xlink:href="#Cmsy10-b1"/>
      </g>
     </g>
    </g>
    <g id="xtick_8">
     <g id="line2d_36">
      <g>
       <use style="stroke:#000000;stroke-width:0.5;" x="249.268305648" xlink:href="#m2170c0c4e0" y="172.8"/>
      </g>
     </g>
     <g id="line2d_37">
      <g>
       <use style="stroke:#000000;stroke-width:0.5;" x="249.268305648" xlink:href="#m782e330b76" y="21.6"/>
      </g>
     </g>
     <g id="text_19">
      <!-- 45$^\circ$ -->
      <defs>
       <path d="M 10.796875 72.90625 
L 49.515625 72.90625 
L 49.515625 64.59375 
L 19.828125 64.59375 
L 19.828125 46.734375 
Q 21.96875 47.46875 24.109375 47.828125 
Q 26.265625 48.1875 28.421875 48.1875 
Q 40.625 48.1875 47.75 41.5 
Q 54.890625 34.8125 54.890625 23.390625 
Q 54.890625 11.625 47.5625 5.09375 
Q 40.234375 -1.421875 26.90625 -1.421875 
Q 22.3125 -1.421875 17.546875 -0.640625 
Q 12.796875 0.140625 7.71875 1.703125 
L 7.71875 11.625 
Q 12.109375 9.234375 16.796875 8.0625 
Q 21.484375 6.890625 26.703125 6.890625 
Q 35.15625 6.890625 40.078125 11.328125 
Q 45.015625 15.765625 45.015625 23.390625 
Q 45.015625 31 40.078125 35.4375 
Q 35.15625 39.890625 26.703125 39.890625 
Q 22.75 39.890625 18.8125 39.015625 
Q 14.890625 38.140625 10.796875 36.28125 
z
" id="BitstreamVeraSans-Roman-35"/>
      </defs>
      <g transform="translate(239.368305648 184.3984375)scale(0.1 -0.1)">
       <use transform="translate(0.0 0.09375)" xlink:href="#BitstreamVeraSans-Roman-34"/>
       <use transform="translate(63.623046875 0.09375)" xlink:href="#BitstreamVeraSans-Roman-35"/>
       <use transform="translate(144.00125 38.3578125)scale(0.7)" xlink:href="#Cmsy10-b1"/>
      </g>
     </g>
    </g>
    <g id="xtick_9">
     <g id="line2d_38">
      <g>
       <use style="stroke:#000000;stroke-width:0.5;" x="271.08358804" xlink:href="#m2170c0c4e0" y="172.8"/>
      </g>
     </g>
     <g id="line2d_39">
      <g>
       <use style="stroke:#000000;stroke-width:0.5;" x="271.08358804" xlink:href="#m782e330b76" y="21.6"/>
      </g>
     </g>
     <g id="text_20">
      <!-- 50$^\circ$ -->
      <g transform="translate(261.18358804 184.3984375)scale(0.1 -0.1)">
       <use transform="translate(0.0 0.78125)" xlink:href="#BitstreamVeraSans-Roman-35"/>
       <use transform="translate(63.623046875 0.78125)" xlink:href="#BitstreamVeraSans-Roman-30"/>
       <use transform="translate(144.00125 39.0453125)scale(0.7)" xlink:href="#Cmsy10-b1"/>
      </g>
     </g>
    </g>
    <g id="xtick_10">
     <g id="line2d_40">
      <g>
       <use style="stroke:#000000;stroke-width:0.5;" x="292.898870432" xlink:href="#m2170c0c4e0" y="172.8"/>
      </g>
     </g>
     <g id="line2d_41">
      <g>
       <use style="stroke:#000000;stroke-width:0.5;" x="292.898870432" xlink:href="#m782e330b76" y="21.6"/>
      </g>
     </g>
     <g id="text_21">
      <!-- 55$^\circ$ -->
      <g transform="translate(282.998870432 184.3984375)scale(0.1 -0.1)">
       <use transform="translate(0.0 0.09375)" xlink:href="#BitstreamVeraSans-Roman-35"/>
       <use transform="translate(63.623046875 0.09375)" xlink:href="#BitstreamVeraSans-Roman-35"/>
       <use transform="translate(144.00125 38.3578125)scale(0.7)" xlink:href="#Cmsy10-b1"/>
      </g>
     </g>
    </g>
    <g id="xtick_11">
     <g id="line2d_42">
      <g>
       <use style="stroke:#000000;stroke-width:0.5;" x="314.714152824" xlink:href="#m2170c0c4e0" y="172.8"/>
      </g>
     </g>
     <g id="line2d_43">
      <g>
       <use style="stroke:#000000;stroke-width:0.5;" x="314.714152824" xlink:href="#m782e330b76" y="21.6"/>
      </g>
     </g>
     <g id="text_22">
      <!-- 60$^\circ$ -->
      <g transform="translate(304.814152824 184.3984375)scale(0.1 -0.1)">
       <use transform="translate(0.0 0.78125)" xlink:href="#BitstreamVeraSans-Roman-36"/>
       <use transform="translate(63.623046875 0.78125)" xlink:href="#BitstreamVeraSans-Roman-30"/>
       <use transform="translate(144.00125 39.0453125)scale(0.7)" xlink:href="#Cmsy10-b1"/>
      </g>
     </g>
    </g>
    <g id="xtick_12">
     <g id="line2d_44">
      <g>
       <use style="stroke:#000000;stroke-width:0.5;" x="336.529435216" xlink:href="#m2170c0c4e0" y="172.8"/>
      </g>
     </g>
     <g id="line2d_45">
      <g>
       <use style="stroke:#000000;stroke-width:0.5;" x="336.529435216" xlink:href="#m782e330b76" y="21.6"/>
      </g>
     </g>
     <g id="text_23">
      <!-- 65$^\circ$ -->
      <g transform="translate(326.629435216 184.3984375)scale(0.1 -0.1)">
       <use transform="translate(0.0 0.78125)" xlink:href="#BitstreamVeraSans-Roman-36"/>
       <use transform="translate(63.623046875 0.78125)" xlink:href="#BitstreamVeraSans-Roman-35"/>
       <use transform="translate(144.00125 39.0453125)scale(0.7)" xlink:href="#Cmsy10-b1"/>
      </g>
     </g>
    </g>
    <g id="xtick_13">
     <g id="line2d_46">
      <g>
       <use style="stroke:#000000;stroke-width:0.5;" x="358.344717608" xlink:href="#m2170c0c4e0" y="172.8"/>
      </g>
     </g>
     <g id="line2d_47">
      <g>
       <use style="stroke:#000000;stroke-width:0.5;" x="358.344717608" xlink:href="#m782e330b76" y="21.6"/>
      </g>
     </g>
     <g id="text_24">
      <!-- 70$^\circ$ -->
      <defs>
       <path d="M 8.203125 72.90625 
L 55.078125 72.90625 
L 55.078125 68.703125 
L 28.609375 0 
L 18.3125 0 
L 43.21875 64.59375 
L 8.203125 64.59375 
z
" id="BitstreamVeraSans-Roman-37"/>
      </defs>
      <g transform="translate(348.444717608 184.3984375)scale(0.1 -0.1)">
       <use transform="translate(0.0 0.78125)" xlink:href="#BitstreamVeraSans-Roman-37"/>
       <use transform="translate(63.623046875 0.78125)" xlink:href="#BitstreamVeraSans-Roman-30"/>
       <use transform="translate(144.00125 39.0453125)scale(0.7)" xlink:href="#Cmsy10-b1"/>
      </g>
     </g>
    </g>
    <g id="xtick_14">
     <g id="line2d_48">
      <g>
       <use style="stroke:#000000;stroke-width:0.5;" x="380.16" xlink:href="#m2170c0c4e0" y="172.8"/>
      </g>
     </g>
     <g id="line2d_49">
      <g>
       <use style="stroke:#000000;stroke-width:0.5;" x="380.16" xlink:href="#m782e330b76" y="21.6"/>
      </g>
     </g>
     <g id="text_25">
      <!-- 75$^\circ$ -->
      <g transform="translate(370.26 184.3984375)scale(0.1 -0.1)">
       <use transform="translate(0.0 0.09375)" xlink:href="#BitstreamVeraSans-Roman-37"/>
       <use transform="translate(63.623046875 0.09375)" xlink:href="#BitstreamVeraSans-Roman-35"/>
       <use transform="translate(144.00125 38.3578125)scale(0.7)" xlink:href="#Cmsy10-b1"/>
      </g>
     </g>
    </g>
    <g id="text_26">
     <!-- NMP-CORE angle $\theta_{\mathrm{NMP}}$ -->
     <defs>
      <path d="M 39.40625 66.21875 
Q 28.65625 66.21875 22.328125 58.203125 
Q 16.015625 50.203125 16.015625 36.375 
Q 16.015625 22.609375 22.328125 14.59375 
Q 28.65625 6.59375 39.40625 6.59375 
Q 50.140625 6.59375 56.421875 14.59375 
Q 62.703125 22.609375 62.703125 36.375 
Q 62.703125 50.203125 56.421875 58.203125 
Q 50.140625 66.21875 39.40625 66.21875 
M 39.40625 74.21875 
Q 54.734375 74.21875 63.90625 63.9375 
Q 73.09375 53.65625 73.09375 36.375 
Q 73.09375 19.140625 63.90625 8.859375 
Q 54.734375 -1.421875 39.40625 -1.421875 
Q 24.03125 -1.421875 14.8125 8.828125 
Q 5.609375 19.09375 5.609375 36.375 
Q 5.609375 53.65625 14.8125 63.9375 
Q 24.03125 74.21875 39.40625 74.21875 
" id="BitstreamVeraSans-Roman-4f"/>
      <path d="M 9.8125 72.90625 
L 23.09375 72.90625 
L 55.421875 11.921875 
L 55.421875 72.90625 
L 64.984375 72.90625 
L 64.984375 0 
L 51.703125 0 
L 19.390625 60.984375 
L 19.390625 0 
L 9.8125 0 
z
" id="BitstreamVeraSans-Roman-4e"/>
      <path d="M 9.8125 72.90625 
L 24.515625 72.90625 
L 43.109375 23.296875 
L 61.8125 72.90625 
L 76.515625 72.90625 
L 76.515625 0 
L 66.890625 0 
L 66.890625 64.015625 
L 48.09375 14.015625 
L 38.1875 14.015625 
L 19.390625 64.015625 
L 19.390625 0 
L 9.8125 0 
z
" id="BitstreamVeraSans-Roman-4d"/>
      <path d="M 9.8125 72.90625 
L 55.90625 72.90625 
L 55.90625 64.59375 
L 19.671875 64.59375 
L 19.671875 43.015625 
L 54.390625 43.015625 
L 54.390625 34.71875 
L 19.671875 34.71875 
L 19.671875 8.296875 
L 56.78125 8.296875 
L 56.78125 0 
L 9.8125 0 
z
" id="BitstreamVeraSans-Roman-45"/>
      <path d="M 19.671875 64.796875 
L 19.671875 37.40625 
L 32.078125 37.40625 
Q 38.96875 37.40625 42.71875 40.96875 
Q 46.484375 44.53125 46.484375 51.125 
Q 46.484375 57.671875 42.71875 61.234375 
Q 38.96875 64.796875 32.078125 64.796875 
z
M 9.8125 72.90625 
L 32.078125 72.90625 
Q 44.34375 72.90625 50.609375 67.359375 
Q 56.890625 61.8125 56.890625 51.125 
Q 56.890625 40.328125 50.609375 34.8125 
Q 44.34375 29.296875 32.078125 29.296875 
L 19.671875 29.296875 
L 19.671875 0 
L 9.8125 0 
z
" id="BitstreamVeraSans-Roman-50"/>
      <path d="M 44.390625 34.1875 
Q 47.5625 33.109375 50.5625 29.59375 
Q 53.5625 26.078125 56.59375 19.921875 
L 66.609375 0 
L 56 0 
L 46.6875 18.703125 
Q 43.0625 26.03125 39.671875 28.421875 
Q 36.28125 30.8125 30.421875 30.8125 
L 19.671875 30.8125 
L 19.671875 0 
L 9.8125 0 
L 9.8125 72.90625 
L 32.078125 72.90625 
Q 44.578125 72.90625 50.734375 67.671875 
Q 56.890625 62.453125 56.890625 51.90625 
Q 56.890625 45.015625 53.6875 40.46875 
Q 50.484375 35.9375 44.390625 34.1875 
M 19.671875 64.796875 
L 19.671875 38.921875 
L 32.078125 38.921875 
Q 39.203125 38.921875 42.84375 42.21875 
Q 46.484375 45.515625 46.484375 51.90625 
Q 46.484375 58.296875 42.84375 61.546875 
Q 39.203125 64.796875 32.078125 64.796875 
z
" id="BitstreamVeraSans-Roman-52"/>
      <path d="M 64.40625 67.28125 
L 64.40625 56.890625 
Q 59.421875 61.53125 53.78125 63.8125 
Q 48.140625 66.109375 41.796875 66.109375 
Q 29.296875 66.109375 22.65625 58.46875 
Q 16.015625 50.828125 16.015625 36.375 
Q 16.015625 21.96875 22.65625 14.328125 
Q 29.296875 6.6875 41.796875 6.6875 
Q 48.140625 6.6875 53.78125 8.984375 
Q 59.421875 11.28125 64.40625 15.921875 
L 64.40625 5.609375 
Q 59.234375 2.09375 53.4375 0.328125 
Q 47.65625 -1.421875 41.21875 -1.421875 
Q 24.65625 -1.421875 15.125 8.703125 
Q 5.609375 18.84375 5.609375 36.375 
Q 5.609375 53.953125 15.125 64.078125 
Q 24.65625 74.21875 41.21875 74.21875 
Q 47.75 74.21875 53.53125 72.484375 
Q 59.328125 70.75 64.40625 67.28125 
" id="BitstreamVeraSans-Roman-43"/>
      <path d="M 4.890625 31.390625 
L 31.203125 31.390625 
L 31.203125 23.390625 
L 4.890625 23.390625 
z
" id="BitstreamVeraSans-Roman-2d"/>
     </defs>
     <g transform="translate(248.906511628 199.078125)scale(0.1 -0.1)">
      <use transform="translate(0.0 0.015625)" xlink:href="#BitstreamVeraSans-Roman-4e"/>
      <use transform="translate(74.8046875 0.015625)" xlink:href="#BitstreamVeraSans-Roman-4d"/>
      <use transform="translate(161.083984375 0.015625)" xlink:href="#BitstreamVeraSans-Roman-50"/>
      <use transform="translate(221.38671875 0.015625)" xlink:href="#BitstreamVeraSans-Roman-2d"/>
      <use transform="translate(257.470703125 0.015625)" xlink:href="#BitstreamVeraSans-Roman-43"/>
      <use transform="translate(327.294921875 0.015625)" xlink:href="#BitstreamVeraSans-Roman-4f"/>
      <use transform="translate(406.005859375 0.015625)" xlink:href="#BitstreamVeraSans-Roman-52"/>
      <use transform="translate(475.48828125 0.015625)" xlink:href="#BitstreamVeraSans-Roman-45"/>
      <use transform="translate(538.671875 0.015625)" xlink:href="#BitstreamVeraSans-Roman-20"/>
      <use transform="translate(570.458984375 0.015625)" xlink:href="#BitstreamVeraSans-Roman-61"/>
      <use transform="translate(631.73828125 0.015625)" xlink:href="#BitstreamVeraSans-Roman-6e"/>
      <use transform="translate(695.1171875 0.015625)" xlink:href="#BitstreamVeraSans-Roman-67"/>
      <use transform="translate(758.59375 0.015625)" xlink:href="#BitstreamVeraSans-Roman-6c"/>
      <use transform="translate(786.376953125 0.015625)" xlink:href="#BitstreamVeraSans-Roman-65"/>
      <use transform="translate(847.900390625 0.015625)" xlink:href="#BitstreamVeraSans-Roman-20"/>
      <use transform="translate(879.6875 0.015625)" xlink:href="#Cmmi10-b5"/>
      <use transform="translate(926.611328125 -16.990625)scale(0.7)" xlink:href="#Cmr10-4e"/>
      <use transform="translate(979.111328125 -16.990625)scale(0.7)" xlink:href="#Cmr10-4d"/>
      <use transform="translate(1043.23242188 -16.990625)scale(0.7)" xlink:href="#Cmr10-50"/>
     </g>
    </g>
   </g>
   <g id="matplotlib.axis_4">
    <g id="ytick_8">
     <g id="line2d_50">
      <g>
       <use style="stroke:#000000;stroke-width:0.5;" x="380.16" xlink:href="#m22a4dfaf05" y="172.8"/>
      </g>
     </g>
     <g id="text_27">
      <!-- 105$^\circ$ -->
      <g transform="translate(384.16 175.559375)scale(0.1 -0.1)">
       <use transform="translate(0.0 0.78125)" xlink:href="#BitstreamVeraSans-Roman-31"/>
       <use transform="translate(63.623046875 0.78125)" xlink:href="#BitstreamVeraSans-Roman-30"/>
       <use transform="translate(127.24609375 0.78125)" xlink:href="#BitstreamVeraSans-Roman-35"/>
       <use transform="translate(207.624296875 39.0453125)scale(0.7)" xlink:href="#Cmsy10-b1"/>
      </g>
     </g>
    </g>
    <g id="ytick_9">
     <g id="line2d_51">
      <g>
       <use style="stroke:#000000;stroke-width:0.5;" x="380.16" xlink:href="#m22a4dfaf05" y="156.0"/>
      </g>
     </g>
     <g id="text_28">
      <!-- 110$^\circ$ -->
      <g transform="translate(384.16 158.759375)scale(0.1 -0.1)">
       <use transform="translate(0.0 0.78125)" xlink:href="#BitstreamVeraSans-Roman-31"/>
       <use transform="translate(63.623046875 0.78125)" xlink:href="#BitstreamVeraSans-Roman-31"/>
       <use transform="translate(127.24609375 0.78125)" xlink:href="#BitstreamVeraSans-Roman-30"/>
       <use transform="translate(207.624296875 39.0453125)scale(0.7)" xlink:href="#Cmsy10-b1"/>
      </g>
     </g>
    </g>
    <g id="ytick_10">
     <g id="line2d_52">
      <g>
       <use style="stroke:#000000;stroke-width:0.5;" x="380.16" xlink:href="#m22a4dfaf05" y="139.2"/>
      </g>
     </g>
     <g id="text_29">
      <!-- 115$^\circ$ -->
      <g transform="translate(384.16 141.959375)scale(0.1 -0.1)">
       <use transform="translate(0.0 0.09375)" xlink:href="#BitstreamVeraSans-Roman-31"/>
       <use transform="translate(63.623046875 0.09375)" xlink:href="#BitstreamVeraSans-Roman-31"/>
       <use transform="translate(127.24609375 0.09375)" xlink:href="#BitstreamVeraSans-Roman-35"/>
       <use transform="translate(207.624296875 38.3578125)scale(0.7)" xlink:href="#Cmsy10-b1"/>
      </g>
     </g>
    </g>
    <g id="ytick_11">
     <g id="line2d_53">
      <g>
       <use style="stroke:#000000;stroke-width:0.5;" x="380.16" xlink:href="#m22a4dfaf05" y="122.4"/>
      </g>
     </g>
     <g id="text_30">
      <!-- 120$^\circ$ -->
      <g transform="translate(384.16 125.159375)scale(0.1 -0.1)">
       <use transform="translate(0.0 0.78125)" xlink:href="#BitstreamVeraSans-Roman-31"/>
       <use transform="translate(63.623046875 0.78125)" xlink:href="#BitstreamVeraSans-Roman-32"/>
       <use transform="translate(127.24609375 0.78125)" xlink:href="#BitstreamVeraSans-Roman-30"/>
       <use transform="translate(207.624296875 39.0453125)scale(0.7)" xlink:href="#Cmsy10-b1"/>
      </g>
     </g>
    </g>
    <g id="ytick_12">
     <g id="line2d_54">
      <g>
       <use style="stroke:#000000;stroke-width:0.5;" x="380.16" xlink:href="#m22a4dfaf05" y="105.6"/>
      </g>
     </g>
     <g id="text_31">
      <!-- 125$^\circ$ -->
      <g transform="translate(384.16 108.359375)scale(0.1 -0.1)">
       <use transform="translate(0.0 0.78125)" xlink:href="#BitstreamVeraSans-Roman-31"/>
       <use transform="translate(63.623046875 0.78125)" xlink:href="#BitstreamVeraSans-Roman-32"/>
       <use transform="translate(127.24609375 0.78125)" xlink:href="#BitstreamVeraSans-Roman-35"/>
       <use transform="translate(207.624296875 39.0453125)scale(0.7)" xlink:href="#Cmsy10-b1"/>
      </g>
     </g>
    </g>
    <g id="ytick_13">
     <g id="line2d_55">
      <g>
       <use style="stroke:#000000;stroke-width:0.5;" x="380.16" xlink:href="#m22a4dfaf05" y="88.8"/>
      </g>
     </g>
     <g id="text_32">
      <!-- 130$^\circ$ -->
      <defs>
       <path d="M 40.578125 39.3125 
Q 47.65625 37.796875 51.625 33 
Q 55.609375 28.21875 55.609375 21.1875 
Q 55.609375 10.40625 48.1875 4.484375 
Q 40.765625 -1.421875 27.09375 -1.421875 
Q 22.515625 -1.421875 17.65625 -0.515625 
Q 12.796875 0.390625 7.625 2.203125 
L 7.625 11.71875 
Q 11.71875 9.328125 16.59375 8.109375 
Q 21.484375 6.890625 26.8125 6.890625 
Q 36.078125 6.890625 40.9375 10.546875 
Q 45.796875 14.203125 45.796875 21.1875 
Q 45.796875 27.640625 41.28125 31.265625 
Q 36.765625 34.90625 28.71875 34.90625 
L 20.21875 34.90625 
L 20.21875 43.015625 
L 29.109375 43.015625 
Q 36.375 43.015625 40.234375 45.921875 
Q 44.09375 48.828125 44.09375 54.296875 
Q 44.09375 59.90625 40.109375 62.90625 
Q 36.140625 65.921875 28.71875 65.921875 
Q 24.65625 65.921875 20.015625 65.03125 
Q 15.375 64.15625 9.8125 62.3125 
L 9.8125 71.09375 
Q 15.4375 72.65625 20.34375 73.4375 
Q 25.25 74.21875 29.59375 74.21875 
Q 40.828125 74.21875 47.359375 69.109375 
Q 53.90625 64.015625 53.90625 55.328125 
Q 53.90625 49.265625 50.4375 45.09375 
Q 46.96875 40.921875 40.578125 39.3125 
" id="BitstreamVeraSans-Roman-33"/>
      </defs>
      <g transform="translate(384.16 91.559375)scale(0.1 -0.1)">
       <use transform="translate(0.0 0.78125)" xlink:href="#BitstreamVeraSans-Roman-31"/>
       <use transform="translate(63.623046875 0.78125)" xlink:href="#BitstreamVeraSans-Roman-33"/>
       <use transform="translate(127.24609375 0.78125)" xlink:href="#BitstreamVeraSans-Roman-30"/>
       <use transform="translate(207.624296875 39.0453125)scale(0.7)" xlink:href="#Cmsy10-b1"/>
      </g>
     </g>
    </g>
    <g id="ytick_14">
     <g id="line2d_56">
      <g>
       <use style="stroke:#000000;stroke-width:0.5;" x="380.16" xlink:href="#m22a4dfaf05" y="72.0"/>
      </g>
     </g>
     <g id="text_33">
      <!-- 135$^\circ$ -->
      <g transform="translate(384.16 74.759375)scale(0.1 -0.1)">
       <use transform="translate(0.0 0.78125)" xlink:href="#BitstreamVeraSans-Roman-31"/>
       <use transform="translate(63.623046875 0.78125)" xlink:href="#BitstreamVeraSans-Roman-33"/>
       <use transform="translate(127.24609375 0.78125)" xlink:href="#BitstreamVeraSans-Roman-35"/>
       <use transform="translate(207.624296875 39.0453125)scale(0.7)" xlink:href="#Cmsy10-b1"/>
      </g>
     </g>
    </g>
    <g id="ytick_15">
     <g id="line2d_57">
      <g>
       <use style="stroke:#000000;stroke-width:0.5;" x="380.16" xlink:href="#m22a4dfaf05" y="55.2"/>
      </g>
     </g>
     <g id="text_34">
      <!-- 140$^\circ$ -->
      <g transform="translate(384.16 57.959375)scale(0.1 -0.1)">
       <use transform="translate(0.0 0.78125)" xlink:href="#BitstreamVeraSans-Roman-31"/>
       <use transform="translate(63.623046875 0.78125)" xlink:href="#BitstreamVeraSans-Roman-34"/>
       <use transform="translate(127.24609375 0.78125)" xlink:href="#BitstreamVeraSans-Roman-30"/>
       <use transform="translate(207.624296875 39.0453125)scale(0.7)" xlink:href="#Cmsy10-b1"/>
      </g>
     </g>
    </g>
    <g id="ytick_16">
     <g id="line2d_58">
      <g>
       <use style="stroke:#000000;stroke-width:0.5;" x="380.16" xlink:href="#m22a4dfaf05" y="38.4"/>
      </g>
     </g>
     <g id="text_35">
      <!-- 145$^\circ$ -->
      <g transform="translate(384.16 41.159375)scale(0.1 -0.1)">
       <use transform="translate(0.0 0.09375)" xlink:href="#BitstreamVeraSans-Roman-31"/>
       <use transform="translate(63.623046875 0.09375)" xlink:href="#BitstreamVeraSans-Roman-34"/>
       <use transform="translate(127.24609375 0.09375)" xlink:href="#BitstreamVeraSans-Roman-35"/>
       <use transform="translate(207.624296875 38.3578125)scale(0.7)" xlink:href="#Cmsy10-b1"/>
      </g>
     </g>
    </g>
    <g id="ytick_17">
     <g id="line2d_59">
      <g>
       <use style="stroke:#000000;stroke-width:0.5;" x="380.16" xlink:href="#m22a4dfaf05" y="21.6"/>
      </g>
     </g>
     <g id="text_36">
      <!-- 150$^\circ$ -->
      <g transform="translate(384.16 24.359375)scale(0.1 -0.1)">
       <use transform="translate(0.0 0.78125)" xlink:href="#BitstreamVeraSans-Roman-31"/>
       <use transform="translate(63.623046875 0.78125)" xlink:href="#BitstreamVeraSans-Roman-35"/>
       <use transform="translate(127.24609375 0.78125)" xlink:href="#BitstreamVeraSans-Roman-30"/>
       <use transform="translate(207.624296875 39.0453125)scale(0.7)" xlink:href="#Cmsy10-b1"/>
      </g>
     </g>
    </g>
    <g id="text_37">
     <!-- LID-CORE angle $\theta_{\mathrm{LID}}$ -->
     <defs>
      <path d="M 19.671875 64.796875 
L 19.671875 8.109375 
L 31.59375 8.109375 
Q 46.6875 8.109375 53.6875 14.9375 
Q 60.6875 21.78125 60.6875 36.53125 
Q 60.6875 51.171875 53.6875 57.984375 
Q 46.6875 64.796875 31.59375 64.796875 
z
M 9.8125 72.90625 
L 30.078125 72.90625 
Q 51.265625 72.90625 61.171875 64.09375 
Q 71.09375 55.28125 71.09375 36.53125 
Q 71.09375 17.671875 61.125 8.828125 
Q 51.171875 0 30.078125 0 
L 9.8125 0 
z
" id="BitstreamVeraSans-Roman-44"/>
      <path d="M 9.8125 72.90625 
L 19.671875 72.90625 
L 19.671875 8.296875 
L 55.171875 8.296875 
L 55.171875 0 
L 9.8125 0 
z
" id="BitstreamVeraSans-Roman-4c"/>
      <path d="M 9.8125 72.90625 
L 19.671875 72.90625 
L 19.671875 0 
L 9.8125 0 
z
" id="BitstreamVeraSans-Roman-49"/>
     </defs>
     <g transform="translate(422.96 147.05)rotate(-90.0)scale(0.1 -0.1)">
      <use transform="translate(0.0 0.015625)" xlink:href="#BitstreamVeraSans-Roman-4c"/>
      <use transform="translate(55.712890625 0.015625)" xlink:href="#BitstreamVeraSans-Roman-49"/>
      <use transform="translate(85.205078125 0.015625)" xlink:href="#BitstreamVeraSans-Roman-44"/>
      <use transform="translate(162.20703125 0.015625)" xlink:href="#BitstreamVeraSans-Roman-2d"/>
      <use transform="translate(198.291015625 0.015625)" xlink:href="#BitstreamVeraSans-Roman-43"/>
      <use transform="translate(268.115234375 0.015625)" xlink:href="#BitstreamVeraSans-Roman-4f"/>
      <use transform="translate(346.826171875 0.015625)" xlink:href="#BitstreamVeraSans-Roman-52"/>
      <use transform="translate(416.30859375 0.015625)" xlink:href="#BitstreamVeraSans-Roman-45"/>
      <use transform="translate(479.4921875 0.015625)" xlink:href="#BitstreamVeraSans-Roman-20"/>
      <use transform="translate(511.279296875 0.015625)" xlink:href="#BitstreamVeraSans-Roman-61"/>
      <use transform="translate(572.55859375 0.015625)" xlink:href="#BitstreamVeraSans-Roman-6e"/>
      <use transform="translate(635.9375 0.015625)" xlink:href="#BitstreamVeraSans-Roman-67"/>
      <use transform="translate(699.4140625 0.015625)" xlink:href="#BitstreamVeraSans-Roman-6c"/>
      <use transform="translate(727.197265625 0.015625)" xlink:href="#BitstreamVeraSans-Roman-65"/>
      <use transform="translate(788.720703125 0.015625)" xlink:href="#BitstreamVeraSans-Roman-20"/>
      <use transform="translate(820.5078125 0.015625)" xlink:href="#Cmmi10-b5"/>
      <use transform="translate(867.431640625 -16.990625)scale(0.7)" xlink:href="#Cmr10-4c"/>
      <use transform="translate(911.181640625 -16.990625)scale(0.7)" xlink:href="#Cmr10-49"/>
      <use transform="translate(936.440429688 -16.990625)scale(0.7)" xlink:href="#Cmr10-44"/>
     </g>
    </g>
   </g>
  </g>
 </g>
 <defs>
  <clipPath id="p5144b9aae7">
   <rect height="151.2" width="152.706976744" x="227.453023256" y="21.6"/>
  </clipPath>
  <clipPath id="pf514c253b2">
   <rect height="151.2" width="152.706976744" x="51.84" y="21.6"/>
  </clipPath>
 </defs>
</svg>
